<mxfile host="app.diagrams.net" modified="2023-10-31T20:25:38.162Z" agent="Mozilla/5.0 (X11; Linux x86_64; rv:109.0) Gecko/20100101 Firefox/118.0" etag="b2-uqAG3ZzVsytyUasfa" version="22.0.8" type="github">
  <diagram name="Page-1" id="AU19AGLgat908GR2HZlc">
    <mxGraphModel dx="779" dy="823" grid="1" gridSize="10" guides="1" tooltips="1" connect="1" arrows="1" fold="1" page="1" pageScale="1" pageWidth="1169" pageHeight="827" math="0" shadow="0">
      <root>
        <mxCell id="0" />
        <mxCell id="1" parent="0" />
        <mxCell id="3ZkCSINY3EVf0kIzQqb3-2" value="" style="shape=cylinder3;whiteSpace=wrap;html=1;boundedLbl=1;backgroundOutline=1;size=15;fontSize=16;" vertex="1" parent="1">
          <mxGeometry x="330" y="720" width="60" height="80" as="geometry" />
        </mxCell>
        <mxCell id="3ZkCSINY3EVf0kIzQqb3-3" value="" style="sketch=0;aspect=fixed;pointerEvents=1;shadow=0;dashed=0;html=1;strokeColor=none;labelPosition=center;verticalLabelPosition=bottom;verticalAlign=top;align=center;fillColor=#00188D;shape=mxgraph.mscae.enterprise.internet_hollow;fontSize=16;" vertex="1" parent="1">
          <mxGeometry x="325" y="19.99999999999997" width="70" height="43.4" as="geometry" />
        </mxCell>
      </root>
    </mxGraphModel>
  </diagram>
</mxfile>
